<mxfile host="drawio-plugin" modified="2022-11-24T17:37:50.503Z" agent="5.0 (X11; Linux x86_64) AppleWebKit/537.36 (KHTML, like Gecko) Chrome/98.0.4758.102 Safari/537.36" etag="wbID-d3EJQlDl7qZs8Qr" version="20.5.3" type="embed"><diagram name="states" id="58cdce13-f638-feb5-8d6f-7d28b1aa9fa0"><mxGraphModel dx="1205" dy="897" grid="1" gridSize="10" guides="1" tooltips="1" connect="1" arrows="1" fold="1" page="1" pageScale="1" pageWidth="1100" pageHeight="850" background="none" math="0" shadow="0"><root><mxCell id="0"/><mxCell id="1" parent="0"/><mxCell id="iJxQ0rGcF5sKr0iRyJYv-51" value="Legend" style="shape=umlFrame;whiteSpace=wrap;html=1;rounded=1;fontFamily=Helvetica;fillColor=#fff2cc;strokeColor=#d6b656;swimlaneFillColor=#ffffff;fontStyle=1" parent="1" vertex="1"><mxGeometry x="160" y="560" width="140" height="260" as="geometry"/></mxCell><mxCell id="iJxQ0rGcF5sKr0iRyJYv-5" style="edgeStyle=orthogonalEdgeStyle;rounded=1;orthogonalLoop=1;jettySize=auto;html=1;fontFamily=Helvetica;strokeColor=default;" parent="1" source="382b91b5511bd0f7-1" target="382b91b5511bd0f7-6" edge="1"><mxGeometry relative="1" as="geometry"/></mxCell><mxCell id="382b91b5511bd0f7-1" value="" style="ellipse;html=1;shape=startState;fillColor=#000000;strokeColor=#ff0000;rounded=1;shadow=0;comic=0;labelBackgroundColor=none;fontFamily=Verdana;fontSize=12;fontColor=#000000;align=center;direction=south;" parent="1" vertex="1"><mxGeometry x="565" y="50" width="30" height="30" as="geometry"/></mxCell><mxCell id="iJxQ0rGcF5sKr0iRyJYv-2" value="START" style="edgeStyle=orthogonalEdgeStyle;rounded=1;orthogonalLoop=1;jettySize=auto;html=1;arcSize=12;fontStyle=1" parent="1" source="382b91b5511bd0f7-6" target="iJxQ0rGcF5sKr0iRyJYv-1" edge="1"><mxGeometry relative="1" as="geometry"/></mxCell><mxCell id="382b91b5511bd0f7-6" value="onCreate" style="rounded=1;whiteSpace=wrap;html=1;arcSize=8;fillColor=#d5e8d4;strokeColor=#82b366;shadow=0;comic=0;labelBackgroundColor=none;fontFamily=Helvetica;fontSize=12;align=center;" parent="1" vertex="1"><mxGeometry x="520" y="120" width="120" height="40" as="geometry"/></mxCell><mxCell id="iJxQ0rGcF5sKr0iRyJYv-6" value="ACTIVATE" style="edgeStyle=orthogonalEdgeStyle;rounded=1;orthogonalLoop=1;jettySize=auto;html=1;fontFamily=Helvetica;strokeColor=default;arcSize=12;fontStyle=1" parent="1" source="iJxQ0rGcF5sKr0iRyJYv-1" target="iJxQ0rGcF5sKr0iRyJYv-10" edge="1"><mxGeometry relative="1" as="geometry"/></mxCell><mxCell id="iJxQ0rGcF5sKr0iRyJYv-1" value="onStart" style="rounded=1;whiteSpace=wrap;html=1;arcSize=8;fillColor=#dae8fc;strokeColor=#6c8ebf;shadow=0;comic=0;labelBackgroundColor=none;fontFamily=Helvetica;fontSize=12;align=center;" parent="1" vertex="1"><mxGeometry x="520" y="200" width="120" height="40" as="geometry"/></mxCell><mxCell id="iJxQ0rGcF5sKr0iRyJYv-8" value="STOP" style="edgeStyle=orthogonalEdgeStyle;rounded=1;orthogonalLoop=1;jettySize=auto;html=1;fontFamily=Helvetica;strokeColor=default;arcSize=12;fontStyle=1" parent="1" source="iJxQ0rGcF5sKr0iRyJYv-3" target="iJxQ0rGcF5sKr0iRyJYv-7" edge="1"><mxGeometry relative="1" as="geometry"/></mxCell><mxCell id="iJxQ0rGcF5sKr0iRyJYv-19" value="" style="edgeStyle=orthogonalEdgeStyle;rounded=1;orthogonalLoop=1;jettySize=auto;html=1;fontFamily=Helvetica;strokeColor=default;entryX=0.5;entryY=1;entryDx=0;entryDy=0;exitX=0;exitY=0.5;exitDx=0;exitDy=0;" parent="1" source="iJxQ0rGcF5sKr0iRyJYv-3" target="iJxQ0rGcF5sKr0iRyJYv-20" edge="1"><mxGeometry relative="1" as="geometry"><mxPoint x="740" y="300" as="targetPoint"/></mxGeometry></mxCell><mxCell id="iJxQ0rGcF5sKr0iRyJYv-35" value="*" style="edgeStyle=orthogonalEdgeStyle;rounded=1;orthogonalLoop=1;jettySize=auto;html=1;fontFamily=Helvetica;strokeColor=default;entryX=0.5;entryY=0;entryDx=0;entryDy=0;exitX=0.5;exitY=1;exitDx=0;exitDy=0;" parent="1" source="iJxQ0rGcF5sKr0iRyJYv-24" target="iJxQ0rGcF5sKr0iRyJYv-3" edge="1"><mxGeometry relative="1" as="geometry"><mxPoint x="490" y="420" as="sourcePoint"/></mxGeometry></mxCell><mxCell id="iJxQ0rGcF5sKr0iRyJYv-3" value="onDeactivate" style="rounded=1;whiteSpace=wrap;html=1;arcSize=8;fillColor=#f5f5f5;strokeColor=#666666;shadow=0;comic=0;labelBackgroundColor=none;fontFamily=Helvetica;fontSize=12;align=center;fontColor=#333333;" parent="1" vertex="1"><mxGeometry x="520" y="440" width="120" height="40" as="geometry"/></mxCell><mxCell id="iJxQ0rGcF5sKr0iRyJYv-12" style="edgeStyle=orthogonalEdgeStyle;rounded=1;orthogonalLoop=1;jettySize=auto;html=1;fontFamily=Helvetica;strokeColor=default;arcSize=12;entryX=0.5;entryY=0;entryDx=0;entryDy=0;" parent="1" source="iJxQ0rGcF5sKr0iRyJYv-7" target="iJxQ0rGcF5sKr0iRyJYv-26" edge="1"><mxGeometry relative="1" as="geometry"/></mxCell><mxCell id="iJxQ0rGcF5sKr0iRyJYv-16" style="edgeStyle=orthogonalEdgeStyle;rounded=1;orthogonalLoop=1;jettySize=auto;html=1;fontFamily=Helvetica;strokeColor=default;entryX=0.5;entryY=1;entryDx=0;entryDy=0;exitX=0;exitY=0.5;exitDx=0;exitDy=0;" parent="1" source="iJxQ0rGcF5sKr0iRyJYv-7" target="iJxQ0rGcF5sKr0iRyJYv-17" edge="1"><mxGeometry relative="1" as="geometry"><mxPoint x="420" y="480" as="sourcePoint"/><mxPoint x="260" y="440" as="targetPoint"/></mxGeometry></mxCell><mxCell id="iJxQ0rGcF5sKr0iRyJYv-7" value="onStop" style="rounded=1;whiteSpace=wrap;html=1;arcSize=8;fillColor=#dae8fc;strokeColor=#6c8ebf;shadow=0;comic=0;labelBackgroundColor=none;fontFamily=Helvetica;fontSize=12;align=center;" parent="1" vertex="1"><mxGeometry x="520" y="520" width="120" height="40" as="geometry"/></mxCell><mxCell id="iJxQ0rGcF5sKr0iRyJYv-15" value="" style="edgeStyle=orthogonalEdgeStyle;rounded=1;orthogonalLoop=1;jettySize=auto;html=1;fontFamily=Helvetica;strokeColor=default;" parent="1" source="iJxQ0rGcF5sKr0iRyJYv-9" target="iJxQ0rGcF5sKr0iRyJYv-14" edge="1"><mxGeometry relative="1" as="geometry"/></mxCell><mxCell id="iJxQ0rGcF5sKr0iRyJYv-9" value="onDestroy" style="rounded=1;whiteSpace=wrap;html=1;arcSize=8;fillColor=#d5e8d4;strokeColor=#82b366;shadow=0;comic=0;labelBackgroundColor=none;fontFamily=Helvetica;fontSize=12;align=center;" parent="1" vertex="1"><mxGeometry x="520" y="680" width="120" height="40" as="geometry"/></mxCell><mxCell id="iJxQ0rGcF5sKr0iRyJYv-11" value="*" style="edgeStyle=orthogonalEdgeStyle;rounded=1;orthogonalLoop=1;jettySize=auto;html=1;fontFamily=Helvetica;strokeColor=default;arcSize=12;entryX=0.5;entryY=0;entryDx=0;entryDy=0;" parent="1" source="iJxQ0rGcF5sKr0iRyJYv-10" target="iJxQ0rGcF5sKr0iRyJYv-24" edge="1"><mxGeometry relative="1" as="geometry"><mxPoint x="580" y="350" as="targetPoint"/></mxGeometry></mxCell><mxCell id="iJxQ0rGcF5sKr0iRyJYv-10" value="onActivate" style="rounded=1;whiteSpace=wrap;html=1;arcSize=8;fillColor=#f5f5f5;strokeColor=#666666;shadow=0;comic=0;labelBackgroundColor=none;fontFamily=Helvetica;fontSize=12;align=center;fontColor=#333333;" parent="1" vertex="1"><mxGeometry x="520" y="280" width="120" height="40" as="geometry"/></mxCell><mxCell id="iJxQ0rGcF5sKr0iRyJYv-14" value="" style="ellipse;html=1;shape=endState;fillColor=#000000;strokeColor=#ff0000;rounded=1;fontFamily=Helvetica;" parent="1" vertex="1"><mxGeometry x="565" y="760" width="30" height="30" as="geometry"/></mxCell><mxCell id="iJxQ0rGcF5sKr0iRyJYv-18" value="START" style="edgeStyle=orthogonalEdgeStyle;rounded=1;orthogonalLoop=1;jettySize=auto;html=1;fontFamily=Helvetica;strokeColor=default;exitX=0.5;exitY=0;exitDx=0;exitDy=0;entryX=0;entryY=0.5;entryDx=0;entryDy=0;fontStyle=1" parent="1" source="iJxQ0rGcF5sKr0iRyJYv-17" target="iJxQ0rGcF5sKr0iRyJYv-1" edge="1"><mxGeometry relative="1" as="geometry"/></mxCell><mxCell id="iJxQ0rGcF5sKr0iRyJYv-17" value="Manual&lt;br&gt;Full restart" style="shape=process;whiteSpace=wrap;html=1;backgroundOutline=1;rounded=1;fontFamily=Helvetica;fillColor=#ffe6cc;strokeColor=#d79b00;" parent="1" vertex="1"><mxGeometry x="200" y="240" width="160" height="40" as="geometry"/></mxCell><mxCell id="iJxQ0rGcF5sKr0iRyJYv-21" value="ACTIVATE" style="edgeStyle=orthogonalEdgeStyle;rounded=1;orthogonalLoop=1;jettySize=auto;html=1;fontFamily=Helvetica;strokeColor=default;entryX=0;entryY=0.5;entryDx=0;entryDy=0;exitX=0.5;exitY=0;exitDx=0;exitDy=0;fontStyle=1" parent="1" source="iJxQ0rGcF5sKr0iRyJYv-20" target="iJxQ0rGcF5sKr0iRyJYv-10" edge="1"><mxGeometry relative="1" as="geometry"><mxPoint x="810" y="230" as="targetPoint"/></mxGeometry></mxCell><mxCell id="iJxQ0rGcF5sKr0iRyJYv-20" value="Automatic&lt;br&gt;Fast restart" style="shape=process;whiteSpace=wrap;html=1;backgroundOutline=1;rounded=1;fontFamily=Helvetica;fillColor=#ffe6cc;strokeColor=#d79b00;" parent="1" vertex="1"><mxGeometry x="320" y="320" width="160" height="40" as="geometry"/></mxCell><mxCell id="iJxQ0rGcF5sKr0iRyJYv-23" value="DEACTIVATE" style="edgeStyle=orthogonalEdgeStyle;rounded=1;orthogonalLoop=1;jettySize=auto;html=1;entryX=1;entryY=0.5;entryDx=0;entryDy=0;fontFamily=Helvetica;strokeColor=default;exitX=0.5;exitY=1;exitDx=0;exitDy=0;fontStyle=1" parent="1" source="iJxQ0rGcF5sKr0iRyJYv-22" target="iJxQ0rGcF5sKr0iRyJYv-3" edge="1"><mxGeometry relative="1" as="geometry"/></mxCell><mxCell id="iJxQ0rGcF5sKr0iRyJYv-22" value="No any activity for defined preiod of time" style="shape=process;whiteSpace=wrap;html=1;backgroundOutline=1;rounded=1;fontFamily=Helvetica;fillColor=#ffe6cc;strokeColor=#d79b00;" parent="1" vertex="1"><mxGeometry x="680" y="400" width="160" height="40" as="geometry"/></mxCell><mxCell id="iJxQ0rGcF5sKr0iRyJYv-25" style="edgeStyle=orthogonalEdgeStyle;rounded=1;orthogonalLoop=1;jettySize=auto;html=1;entryX=0.5;entryY=0;entryDx=0;entryDy=0;fontFamily=Helvetica;strokeColor=default;exitX=1;exitY=0.5;exitDx=0;exitDy=0;" parent="1" source="iJxQ0rGcF5sKr0iRyJYv-10" target="iJxQ0rGcF5sKr0iRyJYv-22" edge="1"><mxGeometry relative="1" as="geometry"/></mxCell><mxCell id="iJxQ0rGcF5sKr0iRyJYv-24" value="Messages handling" style="shape=process;whiteSpace=wrap;html=1;backgroundOutline=1;rounded=1;fontFamily=Helvetica;fillColor=#fff2cc;strokeColor=#d6b656;" parent="1" vertex="1"><mxGeometry x="500" y="360" width="160" height="40" as="geometry"/></mxCell><mxCell id="iJxQ0rGcF5sKr0iRyJYv-27" value="DESTROY" style="edgeStyle=orthogonalEdgeStyle;rounded=1;orthogonalLoop=1;jettySize=auto;html=1;entryX=0.5;entryY=0;entryDx=0;entryDy=0;fontFamily=Helvetica;strokeColor=default;fontStyle=1" parent="1" source="iJxQ0rGcF5sKr0iRyJYv-26" target="iJxQ0rGcF5sKr0iRyJYv-9" edge="1"><mxGeometry relative="1" as="geometry"/></mxCell><mxCell id="iJxQ0rGcF5sKr0iRyJYv-26" value="Remove object from registry" style="shape=process;whiteSpace=wrap;html=1;backgroundOutline=1;rounded=1;fontFamily=Helvetica;fillColor=#ffe6cc;strokeColor=#d79b00;" parent="1" vertex="1"><mxGeometry x="500" y="600" width="160" height="40" as="geometry"/></mxCell><mxCell id="iJxQ0rGcF5sKr0iRyJYv-40" value="1" style="text;html=1;align=center;verticalAlign=middle;resizable=0;points=[];autosize=1;strokeColor=none;fillColor=none;fontFamily=Helvetica;fontStyle=1" parent="1" vertex="1"><mxGeometry x="180" y="250" width="20" height="20" as="geometry"/></mxCell><mxCell id="iJxQ0rGcF5sKr0iRyJYv-41" value="2" style="text;html=1;align=center;verticalAlign=middle;resizable=0;points=[];autosize=1;strokeColor=none;fillColor=none;fontFamily=Helvetica;fontStyle=1" parent="1" vertex="1"><mxGeometry x="300" y="330" width="20" height="20" as="geometry"/></mxCell><mxCell id="iJxQ0rGcF5sKr0iRyJYv-43" value="3" style="text;html=1;align=center;verticalAlign=middle;resizable=0;points=[];autosize=1;strokeColor=none;fillColor=none;fontFamily=Helvetica;fontStyle=1" parent="1" vertex="1"><mxGeometry x="480" y="370" width="20" height="20" as="geometry"/></mxCell><mxCell id="iJxQ0rGcF5sKr0iRyJYv-44" value="4" style="text;html=1;align=center;verticalAlign=middle;resizable=0;points=[];autosize=1;strokeColor=none;fillColor=none;fontFamily=Helvetica;fontStyle=1" parent="1" vertex="1"><mxGeometry x="660" y="410" width="20" height="20" as="geometry"/></mxCell><mxCell id="iJxQ0rGcF5sKr0iRyJYv-45" value="5" style="text;html=1;align=center;verticalAlign=middle;resizable=0;points=[];autosize=1;strokeColor=none;fillColor=none;fontFamily=Helvetica;fontStyle=1" parent="1" vertex="1"><mxGeometry x="480" y="610" width="20" height="20" as="geometry"/></mxCell><mxCell id="iJxQ0rGcF5sKr0iRyJYv-46" value="&lt;span style=&quot;color: rgb(51 , 51 , 51)&quot;&gt;Core lifecycle&lt;/span&gt;" style="rounded=1;whiteSpace=wrap;html=1;arcSize=8;fillColor=#d5e8d4;strokeColor=#82b366;shadow=0;comic=0;labelBackgroundColor=none;fontFamily=Helvetica;fontSize=12;align=center;" parent="1" vertex="1"><mxGeometry x="170" y="600" width="120" height="20" as="geometry"/></mxCell><mxCell id="iJxQ0rGcF5sKr0iRyJYv-48" value="&lt;span style=&quot;color: rgb(0 , 0 , 0)&quot;&gt;Extended lifecycle&lt;/span&gt;" style="rounded=1;whiteSpace=wrap;html=1;arcSize=8;fillColor=#f5f5f5;strokeColor=#666666;shadow=0;comic=0;labelBackgroundColor=none;fontFamily=Helvetica;fontSize=12;align=center;fontColor=#333333;" parent="1" vertex="1"><mxGeometry x="170" y="660" width="120" height="20" as="geometry"/></mxCell><mxCell id="iJxQ0rGcF5sKr0iRyJYv-49" value="User defined process" style="shape=process;whiteSpace=wrap;html=1;backgroundOutline=1;rounded=1;fontFamily=Helvetica;fillColor=#fff2cc;strokeColor=#d6b656;" parent="1" vertex="1"><mxGeometry x="170" y="695" width="120" height="40" as="geometry"/></mxCell><mxCell id="iJxQ0rGcF5sKr0iRyJYv-50" value="Internal process" style="shape=process;whiteSpace=wrap;html=1;backgroundOutline=1;rounded=1;fontFamily=Helvetica;fillColor=#ffe6cc;strokeColor=#d79b00;" parent="1" vertex="1"><mxGeometry x="170" y="740" width="120" height="40" as="geometry"/></mxCell><mxCell id="iJxQ0rGcF5sKr0iRyJYv-58" value="Standard lifecycle" style="rounded=1;whiteSpace=wrap;html=1;arcSize=8;fillColor=#dae8fc;strokeColor=#6c8ebf;shadow=0;comic=0;labelBackgroundColor=none;fontFamily=Helvetica;fontSize=12;align=center;" parent="1" vertex="1"><mxGeometry x="170" y="630" width="120" height="20" as="geometry"/></mxCell><mxCell id="iJxQ0rGcF5sKr0iRyJYv-59" value="COMMAND" style="text;html=1;align=left;verticalAlign=middle;resizable=0;points=[];autosize=1;strokeColor=none;fillColor=none;fontFamily=Helvetica;fontStyle=1" parent="1" vertex="1"><mxGeometry x="190" y="790" width="80" height="20" as="geometry"/></mxCell></root></mxGraphModel></diagram></mxfile>